<?xml version="1.0" encoding="UTF-8"?>
<svg version="1.1" xmlns="http://www.w3.org/2000/svg" width="256" height="256">
<path d="M0 0 C84.48 0 168.96 0 256 0 C256 84.48 256 168.96 256 256 C171.52 256 87.04 256 0 256 C0 171.52 0 87.04 0 0 Z " fill="#FDFDFD" transform="translate(0,0)"/>
<path d="M0 0 C1.69661523 1.64188571 3.35413692 3.30755589 5 5 C5.6084375 5.62390625 6.216875 6.2478125 6.84375 6.890625 C13.99255677 14.51957551 19.98849768 22.95569223 26.11230469 31.40966797 C28.05004537 34.06867323 30.00964323 36.71017444 31.9765625 39.34765625 C32.61891846 40.21076416 33.26127441 41.07387207 33.9230957 41.96313477 C35.16130529 43.62565393 36.40194258 45.28636838 37.64526367 46.94506836 C38.20189697 47.6953833 38.75853027 48.44569824 39.33203125 49.21875 C39.82421143 49.87810547 40.3163916 50.53746094 40.82348633 51.21679688 C42 53 42 53 43 56 C44.98 55.01 46.96 54.02 49 53 C48.71125 52.13375 48.4225 51.2675 48.125 50.375 C47.568125 48.704375 47.568125 48.704375 47 47 C46.62875 46.071875 46.2575 45.14375 45.875 44.1875 C44.74339091 40.06520973 44.83018016 36.24549608 45 32 C59.85282042 31.0755506 70.56748357 34.10259178 82 44 C83.84959164 45.48488343 85.70377914 46.96406021 87.5625 48.4375 C89.04216207 49.62438266 90.5215127 50.81165426 92 52 C92.09539062 51.319375 92.19078125 50.63875 92.2890625 49.9375 C96.18484527 33.84063934 109.65413885 20.17456871 122 10 C122.54011719 9.54898926 123.08023438 9.09797852 123.63671875 8.63330078 C125.36923695 7.19618666 127.11823399 5.78233358 128.875 4.375 C129.42269043 3.92423096 129.97038086 3.47346191 130.53466797 3.0090332 C132.71008737 1.3105146 134.37637875 0.06303753 137.1640625 -0.21875 C140.17978971 1.78317955 141.17693358 4.88704792 142.5 8.125 C142.80115723 8.83841553 143.10231445 9.55183105 143.41259766 10.28686523 C152.84232026 33.3184174 156.10854082 66.2555203 147.21923828 90.09375 C144.9301968 95.51050699 142.48996504 101.05759167 138 105 C138.77085937 105.02578125 139.54171875 105.0515625 140.3359375 105.078125 C141.84027344 105.16320312 141.84027344 105.16320312 143.375 105.25 C144.37273437 105.29640625 145.37046875 105.3428125 146.3984375 105.390625 C149 106 149 106 150.3515625 108.046875 C150.67253906 109.01367188 150.67253906 109.01367188 151 110 C146.37338295 116.73304432 140.86878323 122.33998772 135 128 C135.45890625 128.71285156 135.9178125 129.42570313 136.390625 130.16015625 C138.27327026 133.09882312 140.13995631 136.04698191 142 139 C142.45890625 139.72058594 142.9178125 140.44117188 143.390625 141.18359375 C144.5 143 144.5 143 146 146 C145 149 145 149 143.1640625 149.94921875 C136.77555795 151.8067993 131.08364878 152.0732521 124.5 151.875 C117.62484168 151.68519707 112.61265374 152.16094109 106.51953125 155.7109375 C103.10390522 157.4584671 99.74037997 158.15476102 96 159 C96.65226562 159.94359375 97.30453125 160.8871875 97.9765625 161.859375 C108.90561668 177.83969029 115.24589089 191.49717812 116 211 C115.01 211 114.02 211 113 211 C112.81824219 209.96101562 112.63648438 208.92203125 112.44921875 207.8515625 C109.04992069 188.7783601 103.08497936 173.56915526 90 159 C91.48305427 156.03389147 93.84981246 155.85483061 96.83789062 154.83789062 C97.61326172 154.58201172 98.38863281 154.32613281 99.1875 154.0625 C105.26811189 152.05881448 105.26811189 152.05881448 111.03515625 149.3125 C114.83727616 147.6293481 118.18890701 147.7522237 122.25 147.9375 C128.75744836 148.10062566 134.67914151 147.73940086 141 146 C137.81243454 139.90695451 134.27290439 134.38885193 130 129 C131.92318325 124.22445508 135.64789692 121.66162738 139.4921875 118.4140625 C142.54405549 115.64921906 142.54405549 115.64921906 146 110 C139.73 110 133.46 110 127 110 C132 105 132 105 134.09765625 102.9296875 C139.3569849 97.42987265 141.99192294 92.30982548 144 85 C144.21269531 84.236875 144.42539063 83.47375 144.64453125 82.6875 C150.32862386 59.78755856 147.49931565 35.05155913 140 13 C139.69578125 12.07574219 139.3915625 11.15148437 139.078125 10.19921875 C138.3956949 8.12939538 137.69968003 6.06405608 137 4 C116.85879365 18.4631003 102.76220047 34.00250852 93 57 C88.86862851 56.49181307 87.17923169 54.36515878 84.4375 51.375 C74.17801916 40.84434346 63.48696092 36.1683033 49 35 C50.21201175 42.13977726 50.21201175 42.13977726 52.625 48.9375 C54 52 54 52 54 55 C51.71125827 56.33858524 49.41930344 57.67101014 47.125 59 C46.47402344 59.3815625 45.82304688 59.763125 45.15234375 60.15625 C40.2265625 63 40.2265625 63 38 63 C38 63.66 38 64.32 38 65 C46.25 65 54.5 65 63 65 C63 65.99 63 66.98 63 68 C58.56255461 68.05793591 54.12520611 68.09357467 49.6875 68.125 C48.42486328 68.14175781 47.16222656 68.15851563 45.86132812 68.17578125 C44.04858398 68.18544922 44.04858398 68.18544922 42.19921875 68.1953125 C41.08377686 68.20578613 39.96833496 68.21625977 38.8190918 68.22705078 C36 68 36 68 33 66 C34.55834215 62.17497835 37.07215896 59.85216179 40 57 C39.42894531 56.27039063 38.85789062 55.54078125 38.26953125 54.7890625 C33.22795527 48.30915144 28.34075869 41.73912682 23.5625 35.0625 C16.40376905 25.07470279 8.89464175 15.4171798 1 6 C-3.76209685 15.10808815 -8.35358832 24.01522937 -11 34 C-11.29777344 35.05832031 -11.59554687 36.11664063 -11.90234375 37.20703125 C-17.05285702 59.11451398 -16.84128724 86.42996839 -5 106 C-3.38089719 108.3711451 -1.69192423 110.67964677 0 113 C0 113.66 0 114.32 0 115 C-7.35342179 115.20177072 -13.94887561 115.21211746 -21 113 C-17.00657797 119.90627103 -12.55430315 124.47024827 -6 129 C-6.96195274 132.10784731 -7.96611653 134.93646849 -9.5 137.8125 C-10.79857574 140.57197344 -11.47289894 142.7528523 -12.09375 145.69921875 C-12.26583984 146.50576904 -12.43792969 147.31231934 -12.61523438 148.14331055 C-12.74220703 148.75601807 -12.86917969 149.36872559 -13 150 C-12.16359985 149.89957397 -12.16359985 149.89957397 -11.31030273 149.79711914 C2.45381343 148.28002652 10.99635974 149.32644331 23 156 C30.68784103 159.09554661 38.82209416 159.99838329 47 161 C47 161.99 47 162.98 47 164 C39.25847464 164.39363688 32.47941368 162.94210433 25 161 C26.39419487 165.66131417 29.02848362 168.23172772 32.625 171.3125 C33.140625 171.76689453 33.65625 172.22128906 34.1875 172.68945312 C35.4512443 173.80108006 36.72467176 174.9016822 38 176 C37.60167969 176.45890625 37.20335937 176.9178125 36.79296875 177.390625 C36.26316406 178.00421875 35.73335937 178.6178125 35.1875 179.25 C34.66542969 179.85328125 34.14335938 180.4565625 33.60546875 181.078125 C32.00229513 182.99725255 30.5003859 184.99948547 29 187 C32.63 187.33 36.26 187.66 40 188 C39.28716318 193.12914773 37.93243564 197.93375614 36.4375 202.875 C36.08655273 204.050625 36.08655273 204.050625 35.72851562 205.25 C35.15556462 207.16763195 34.57822809 209.08395266 34 211 C33.01 211 32.02 211 31 211 C31.47567125 203.74601342 33.29466594 197.73187777 36 191 C35.22914062 191.02320313 34.45828125 191.04640625 33.6640625 191.0703125 C32.66117188 191.08835938 31.65828125 191.10640625 30.625 191.125 C29.62726563 191.14820313 28.62953125 191.17140625 27.6015625 191.1953125 C25 191 25 191 23 189 C23.93441535 187.72689688 24.87267111 186.456612 25.8125 185.1875 C26.59560547 184.12595703 26.59560547 184.12595703 27.39453125 183.04296875 C28.83128877 181.21468607 30.31815763 179.60103312 32 178 C30.55004713 174.57628929 28.69633403 172.64591653 25.9375 170.1875 C23.20129203 167.55025073 21.50407372 165.82320532 21 162 C21 161.01 21 160.02 21 159 C20.154375 158.731875 19.30875 158.46375 18.4375 158.1875 C15 157 15 157 12.09375 155.46875 C6.68930688 153.12966294 0.85814497 153.42781983 -4.9375 153.3125 C-6.09830078 153.27833984 -7.25910156 153.24417969 -8.45507812 153.20898438 C-11.30328882 153.12693715 -14.15120839 153.05764464 -17 153 C-16.2382067 142.58924887 -16.2382067 142.58924887 -13.9375 137.625 C-12.39109667 134.24602618 -12 132.87495585 -12 129 C-13.54873579 127.33901903 -13.54873579 127.33901903 -15.625 125.875 C-20.31185212 122.01376773 -23.54102959 117.56062626 -26 112 C-26 110.68 -26 109.36 -26 108 C-24.906875 108.33 -23.81375 108.66 -22.6875 109 C-17.47109568 110.32985532 -12.34751531 110.17693984 -7 110 C-7.39832031 109.38253906 -7.79664062 108.76507813 -8.20703125 108.12890625 C-16.50584941 94.86291225 -18.35506569 81.66098924 -18.26074219 66.1574707 C-18.2500327 64.06887676 -18.26069187 61.98114595 -18.2734375 59.89257812 C-18.29698055 39.074829 -12.16836232 20.09606521 -2 2 C-1.34 1.34 -0.68 0.68 0 0 Z " fill="#151515" transform="translate(64,24)"/>
<path d="M0 0 C13.86 0 27.72 0 42 0 C42 0.66 42 1.32 42 2 C39.69 2 37.38 2 35 2 C35.2165625 2.72703125 35.433125 3.4540625 35.65625 4.203125 C38.0014859 12.67203242 39.52043491 21.38173869 37 30 C35.68 30 34.36 30 33 30 C33.16113281 29.29230469 33.32226562 28.58460938 33.48828125 27.85546875 C34.99944977 19.42291772 33.94274565 11.256669 32 3 C28.7 3 25.4 3 22 3 C22.05220703 4.7015625 22.05220703 4.7015625 22.10546875 6.4375 C22.44654348 22.05768366 22.44654348 22.05768366 19 28 C16.30254714 30.33293221 14.5582387 30.90498065 11.0625 31.5 C6.79875917 30.80387905 4.96008987 29.09463941 2 26 C0 20 0 20 0 0 Z " fill="#080808" transform="translate(141,118)"/>
<path d="M0 0 C13.53 0 27.06 0 41 0 C41 23.27793696 41 23.27793696 36.63671875 28.69140625 C34.27093291 30.58290567 31.95002429 30.52734887 29.00390625 30.4296875 C25.64067274 29.70852632 24.05698409 27.61797976 22 25 C20.79970092 22.59940183 20.88540257 21.10639351 20.90234375 18.4296875 C20.90556641 17.53378906 20.90878906 16.63789063 20.91210938 15.71484375 C20.92048828 14.77769531 20.92886719 13.84054688 20.9375 12.875 C20.94201172 11.93011719 20.94652344 10.98523438 20.95117188 10.01171875 C20.96297643 7.67441613 20.97944241 5.33723939 21 3 C17.24986056 3.01273392 13.67266943 3.20913018 10 4 C6.48197069 7.61854443 6.83324633 11.61476257 6.75 16.4375 C6.85535762 21.04162803 7.15801287 25.47431916 8 30 C5 29 5 29 3.83203125 26.90234375 C2.81750663 23.36341515 2.69861987 20.24317621 2.6875 16.5625 C2.66236328 14.64630859 2.66236328 14.64630859 2.63671875 12.69140625 C3.02032107 8.79351169 4.03483292 6.35478391 6 3 C4.02 3 2.04 3 0 3 C0 2.01 0 1.02 0 0 Z " fill="#040404" transform="translate(70,119)"/>
<path d="M0 0 C0.99 0.33 1.98 0.66 3 1 C1.63016497 4.16115776 1.0109362 4.9927092 -2 7 C-4.671875 7.23046875 -4.671875 7.23046875 -7.75 7.1875 C-8.82121094 7.17589844 -9.89242187 7.16429687 -10.99609375 7.15234375 C-14 7 -14 7 -17.8125 6.25 C-21.72869452 5.94284749 -23.11490684 6.9973777 -26.30078125 9.06640625 C-28.93212839 10.51213491 -31.08141244 10.39798921 -34 10 C-34.99 9.34 -35.98 8.68 -37 8 C-37 7.01 -37 6.02 -37 5 C-35.2675 5.4021875 -35.2675 5.4021875 -33.5 5.8125 C-29.70569951 6.33263258 -28.10841939 5.70508587 -25.0625 3.4375 C-21.59227413 0.97038629 -21.59227413 0.97038629 -18.8125 1.109375 C-17.30279115 1.4972863 -15.80096155 1.91714938 -14.30859375 2.3671875 C-11.8488647 3.04142795 -9.67166264 3.25471511 -7.125 3.3125 C-6.04605469 3.33763672 -6.04605469 3.33763672 -4.9453125 3.36328125 C-2.47779255 2.90247933 -1.58606636 1.8903118 0 0 Z " fill="#141414" transform="translate(144,161)"/>
<path d="M0 0 C0 3 0 3 -3 7 C0.63 7.33 4.26 7.66 8 8 C7.28716318 13.12914773 5.93243564 17.93375614 4.4375 22.875 C4.20353516 23.65875 3.96957031 24.4425 3.72851562 25.25 C3.15556462 27.16763195 2.57822809 29.08395266 2 31 C1.01 31 0.02 31 -1 31 C-0.52432875 23.74601342 1.29466594 17.73187777 4 11 C2.84371094 11.03480469 2.84371094 11.03480469 1.6640625 11.0703125 C0.66117188 11.08835938 -0.34171875 11.10640625 -1.375 11.125 C-2.37273437 11.14820313 -3.37046875 11.17140625 -4.3984375 11.1953125 C-7 11 -7 11 -9 9 C-6 6 -3 3 0 0 Z " fill="#0B0B0B" transform="translate(96,204)"/>
<path d="M0 0 C0 1.98 0 3.96 0 6 C0.928125 5.505 1.85625 5.01 2.8125 4.5 C6 3 6 3 9 3 C9 3.99 9 4.98 9 6 C7.39967863 6.84069415 5.79458829 7.67231505 4.1875 8.5 C3.29417969 8.9640625 2.40085937 9.428125 1.48046875 9.90625 C-1 11 -1 11 -4 11 C-4 9.02 -4 7.04 -4 5 C-4.763125 5.515625 -5.52625 6.03125 -6.3125 6.5625 C-7.199375 7.036875 -8.08625 7.51125 -9 8 C-9.99 7.67 -10.98 7.34 -12 7 C-5.36842105 0 -5.36842105 0 0 0 Z " fill="#FF1717" transform="translate(74,153)"/>
<path d="M0 0 C0.99 0.33 1.98 0.66 3 1 C1.76044505 4.71866485 -0.18554854 6.32283886 -3 9 C-3.66 9.66 -4.32 10.32 -5 11 C-7.125 10.625 -7.125 10.625 -9 10 C-9.33 8.68 -9.66 7.36 -10 6 C-12.475 7.485 -12.475 7.485 -15 9 C-15 7.68 -15 6.36 -15 5 C-12.75 2.75 -12.75 2.75 -10 1 C-8.68 1 -7.36 1 -6 1 C-5.67 2.32 -5.34 3.64 -5 5 C-3.35 3.35 -1.7 1.7 0 0 Z " fill="#FF1010" transform="translate(180,152)"/>
<path d="M0 0 C1.0878503 3.49301931 1.06849035 6.66966965 1 10.3125 C0.95763678 15.01481706 1.14090815 19.38238131 2 24 C-1 23 -1 23 -2.16796875 20.9140625 C-3.19543811 17.31550785 -3.30143292 14.11567173 -3.3125 10.375 C-3.32925781 9.06273437 -3.34601563 7.75046875 -3.36328125 6.3984375 C-3 3 -3 3 -1.48046875 1.0390625 C-0.99191406 0.69617188 -0.50335938 0.35328125 0 0 Z " fill="#121212" transform="translate(76,125)"/>
<path d="M0 0 C0.19294408 4.82360189 -0.24252386 8.49646738 -2 13 C-2.99 13 -3.98 13 -5 13 C-4.19444444 0 -4.19444444 0 0 0 Z " fill="#151515" transform="translate(100,222)"/>
<path d="M0 0 C3.63 0 7.26 0 11 0 C11 0.99 11 1.98 11 3 C7.37 3 3.74 3 0 3 C0 2.01 0 1.02 0 0 Z " fill="#101010" transform="translate(118,150)"/>
<path d="M0 0 C0.66 0.33 1.32 0.66 2 1 C0.12050295 4.57104439 -1.17053157 6.54744301 -5 8 C-5 6.68 -5 5.36 -5 4 C-2.5 1.75 -2.5 1.75 0 0 Z " fill="#FF1A1A" transform="translate(170,153)"/>
<path d="M0 0 C0.66 0.33 1.32 0.66 2 1 C1.67 1.99 1.34 2.98 1 4 C-1.5625 5.1875 -1.5625 5.1875 -4 6 C-4 5.01 -4 4.02 -4 3 C-2 1.3125 -2 1.3125 0 0 Z " fill="#FF0D0D" transform="translate(67,155)"/>
</svg>
